<mxfile host="app.diagrams.net" modified="2022-05-16T08:59:04.419Z" agent="5.0 (Windows NT 10.0; Win64; x64) AppleWebKit/537.36 (KHTML, like Gecko) Chrome/72.0.3626.119 Safari/537.36" etag="m6BHzV9ZVpl1Zmyv372g" version="18.0.5" type="github">
  <diagram id="SeiMUxNG_aUVGtQpLSBJ" name="第 1 页">
    <mxGraphModel dx="1422" dy="762" grid="1" gridSize="10" guides="1" tooltips="1" connect="1" arrows="1" fold="1" page="1" pageScale="1" pageWidth="827" pageHeight="1169" math="0" shadow="0">
      <root>
        <mxCell id="0" />
        <mxCell id="1" parent="0" />
        <mxCell id="nerLKtx4VlDvKqR32B_6-3" style="edgeStyle=orthogonalEdgeStyle;rounded=0;orthogonalLoop=1;jettySize=auto;html=1;" edge="1" parent="1" source="nerLKtx4VlDvKqR32B_6-1" target="nerLKtx4VlDvKqR32B_6-2">
          <mxGeometry relative="1" as="geometry" />
        </mxCell>
        <mxCell id="nerLKtx4VlDvKqR32B_6-1" value="问题" style="rounded=1;whiteSpace=wrap;html=1;" vertex="1" parent="1">
          <mxGeometry x="340" y="70" width="120" height="60" as="geometry" />
        </mxCell>
        <mxCell id="nerLKtx4VlDvKqR32B_6-5" value="匹配意图，并且有个性化答案" style="edgeStyle=orthogonalEdgeStyle;rounded=0;orthogonalLoop=1;jettySize=auto;html=1;exitX=0.5;exitY=1;exitDx=0;exitDy=0;" edge="1" parent="1" source="nerLKtx4VlDvKqR32B_6-2" target="nerLKtx4VlDvKqR32B_6-4">
          <mxGeometry relative="1" as="geometry">
            <mxPoint x="280" y="290" as="sourcePoint" />
            <Array as="points">
              <mxPoint x="400" y="310" />
              <mxPoint x="160" y="310" />
            </Array>
          </mxGeometry>
        </mxCell>
        <mxCell id="nerLKtx4VlDvKqR32B_6-7" value="匹配意图或未匹配意图且未维护个性化" style="edgeStyle=orthogonalEdgeStyle;rounded=0;orthogonalLoop=1;jettySize=auto;html=1;" edge="1" parent="1" source="nerLKtx4VlDvKqR32B_6-2" target="nerLKtx4VlDvKqR32B_6-6">
          <mxGeometry relative="1" as="geometry">
            <Array as="points">
              <mxPoint x="400" y="310" />
              <mxPoint x="650" y="310" />
            </Array>
          </mxGeometry>
        </mxCell>
        <mxCell id="nerLKtx4VlDvKqR32B_6-2" value="智能AI服务" style="rounded=1;whiteSpace=wrap;html=1;" vertex="1" parent="1">
          <mxGeometry x="340" y="220" width="120" height="60" as="geometry" />
        </mxCell>
        <mxCell id="nerLKtx4VlDvKqR32B_6-9" value="是" style="edgeStyle=orthogonalEdgeStyle;rounded=0;orthogonalLoop=1;jettySize=auto;html=1;" edge="1" parent="1" source="nerLKtx4VlDvKqR32B_6-4" target="nerLKtx4VlDvKqR32B_6-8">
          <mxGeometry relative="1" as="geometry" />
        </mxCell>
        <mxCell id="nerLKtx4VlDvKqR32B_6-11" value="否" style="edgeStyle=orthogonalEdgeStyle;rounded=0;orthogonalLoop=1;jettySize=auto;html=1;" edge="1" parent="1" source="nerLKtx4VlDvKqR32B_6-4" target="nerLKtx4VlDvKqR32B_6-10">
          <mxGeometry relative="1" as="geometry" />
        </mxCell>
        <mxCell id="nerLKtx4VlDvKqR32B_6-4" value="是否个性化维护且有答案" style="rounded=1;whiteSpace=wrap;html=1;" vertex="1" parent="1">
          <mxGeometry x="100" y="350" width="120" height="60" as="geometry" />
        </mxCell>
        <mxCell id="nerLKtx4VlDvKqR32B_6-13" style="edgeStyle=orthogonalEdgeStyle;rounded=0;orthogonalLoop=1;jettySize=auto;html=1;" edge="1" parent="1" source="nerLKtx4VlDvKqR32B_6-6" target="nerLKtx4VlDvKqR32B_6-12">
          <mxGeometry relative="1" as="geometry" />
        </mxCell>
        <mxCell id="nerLKtx4VlDvKqR32B_6-14" value="是" style="edgeLabel;html=1;align=center;verticalAlign=middle;resizable=0;points=[];" vertex="1" connectable="0" parent="nerLKtx4VlDvKqR32B_6-13">
          <mxGeometry x="-0.1647" y="4" relative="1" as="geometry">
            <mxPoint x="-4" y="-9" as="offset" />
          </mxGeometry>
        </mxCell>
        <mxCell id="nerLKtx4VlDvKqR32B_6-16" value="否" style="edgeStyle=orthogonalEdgeStyle;rounded=0;orthogonalLoop=1;jettySize=auto;html=1;" edge="1" parent="1" source="nerLKtx4VlDvKqR32B_6-6" target="nerLKtx4VlDvKqR32B_6-15">
          <mxGeometry relative="1" as="geometry" />
        </mxCell>
        <mxCell id="nerLKtx4VlDvKqR32B_6-6" value="私有库是否匹配答案" style="rounded=1;whiteSpace=wrap;html=1;" vertex="1" parent="1">
          <mxGeometry x="590" y="350" width="120" height="60" as="geometry" />
        </mxCell>
        <mxCell id="nerLKtx4VlDvKqR32B_6-8" value="返回个性化答案" style="rounded=1;whiteSpace=wrap;html=1;" vertex="1" parent="1">
          <mxGeometry y="480" width="120" height="60" as="geometry" />
        </mxCell>
        <mxCell id="nerLKtx4VlDvKqR32B_6-10" value="返回公有库答案" style="rounded=1;whiteSpace=wrap;html=1;" vertex="1" parent="1">
          <mxGeometry x="190" y="480" width="120" height="60" as="geometry" />
        </mxCell>
        <mxCell id="nerLKtx4VlDvKqR32B_6-12" value="返回私有库答案" style="rounded=1;whiteSpace=wrap;html=1;" vertex="1" parent="1">
          <mxGeometry x="490" y="480" width="120" height="60" as="geometry" />
        </mxCell>
        <mxCell id="nerLKtx4VlDvKqR32B_6-15" value="返回公有库答案" style="rounded=1;whiteSpace=wrap;html=1;" vertex="1" parent="1">
          <mxGeometry x="690" y="480" width="120" height="60" as="geometry" />
        </mxCell>
      </root>
    </mxGraphModel>
  </diagram>
</mxfile>
